<mxfile host="app.diagrams.net" agent="Mozilla/5.0 (Windows NT 10.0; Win64; x64) AppleWebKit/537.36 (KHTML, like Gecko) Chrome/130.0.0.0 Safari/537.36" version="24.8.4">
  <diagram name="Page-1" id="yO9H4vunjbFJAaZqTLQo">
    <mxGraphModel dx="2150" dy="928" grid="1" gridSize="10" guides="1" tooltips="1" connect="1" arrows="1" fold="1" page="1" pageScale="1" pageWidth="850" pageHeight="1100" math="0" shadow="0">
      <root>
        <mxCell id="0" />
        <mxCell id="1" parent="0" />
        <mxCell id="bcK_3l5cSYBwprj938RK-1" value="Ticket Arena System" style="whiteSpace=wrap;strokeWidth=2;" vertex="1" parent="1">
          <mxGeometry x="20" y="163" width="1722" height="118" as="geometry" />
        </mxCell>
        <mxCell id="bcK_3l5cSYBwprj938RK-2" value="User" style="rounded=1;arcSize=40;strokeWidth=2" vertex="1" parent="1">
          <mxGeometry x="816" y="20" width="62" height="51" as="geometry" />
        </mxCell>
        <mxCell id="bcK_3l5cSYBwprj938RK-3" value="Payment Gateway" style="rounded=1;arcSize=40;strokeWidth=2" vertex="1" parent="1">
          <mxGeometry x="1031" y="386" width="161" height="51" as="geometry" />
        </mxCell>
        <mxCell id="bcK_3l5cSYBwprj938RK-4" value="Event Browsing and Filtering" style="whiteSpace=wrap;strokeWidth=2;" vertex="1" parent="1">
          <mxGeometry x="72" y="188" width="202" height="68" as="geometry" />
        </mxCell>
        <mxCell id="bcK_3l5cSYBwprj938RK-5" value="Seat Selection and Availability" style="whiteSpace=wrap;strokeWidth=2;" vertex="1" parent="1">
          <mxGeometry x="412" y="188" width="195" height="68" as="geometry" />
        </mxCell>
        <mxCell id="bcK_3l5cSYBwprj938RK-6" value="Payment Processing" style="whiteSpace=wrap;strokeWidth=2;" vertex="1" parent="1">
          <mxGeometry x="1106" y="197" width="202" height="51" as="geometry" />
        </mxCell>
        <mxCell id="bcK_3l5cSYBwprj938RK-7" value="Profile Management" style="whiteSpace=wrap;strokeWidth=2;" vertex="1" parent="1">
          <mxGeometry x="1503" y="197" width="205" height="51" as="geometry" />
        </mxCell>
        <mxCell id="bcK_3l5cSYBwprj938RK-8" value="Highlights Display" style="whiteSpace=wrap;strokeWidth=2;" vertex="1" parent="1">
          <mxGeometry x="736" y="197" width="187" height="51" as="geometry" />
        </mxCell>
        <mxCell id="bcK_3l5cSYBwprj938RK-9" value="User Database" style="shape=cylinder3;boundedLbl=1;backgroundOutline=1;size=10;strokeWidth=2;whiteSpace=wrap;" vertex="1" parent="1">
          <mxGeometry x="1546" y="376" width="118" height="72" as="geometry" />
        </mxCell>
        <mxCell id="bcK_3l5cSYBwprj938RK-10" value="Match Database" style="shape=cylinder3;boundedLbl=1;backgroundOutline=1;size=10;strokeWidth=2;whiteSpace=wrap;" vertex="1" parent="1">
          <mxGeometry x="377" y="375" width="130" height="74" as="geometry" />
        </mxCell>
        <mxCell id="bcK_3l5cSYBwprj938RK-11" value="Booking Database" style="shape=cylinder3;boundedLbl=1;backgroundOutline=1;size=10;strokeWidth=2;whiteSpace=wrap;" vertex="1" parent="1">
          <mxGeometry x="1326" y="374" width="142" height="76" as="geometry" />
        </mxCell>
        <mxCell id="bcK_3l5cSYBwprj938RK-12" value="View matches / Apply filters" style="curved=1;startArrow=none;endArrow=block;exitX=-0.01;exitY=0.56;entryX=0.31;entryY=0;rounded=0;" edge="1" parent="1" source="bcK_3l5cSYBwprj938RK-2" target="bcK_3l5cSYBwprj938RK-4">
          <mxGeometry relative="1" as="geometry">
            <Array as="points">
              <mxPoint x="108" y="117" />
              <mxPoint x="108" y="163" />
            </Array>
          </mxGeometry>
        </mxCell>
        <mxCell id="bcK_3l5cSYBwprj938RK-13" value="Retrieve match data" style="curved=1;startArrow=none;endArrow=block;exitX=0.5;exitY=1.01;entryX=0;entryY=0.22;rounded=0;" edge="1" parent="1" source="bcK_3l5cSYBwprj938RK-4" target="bcK_3l5cSYBwprj938RK-10">
          <mxGeometry relative="1" as="geometry">
            <Array as="points">
              <mxPoint x="173" y="328" />
            </Array>
          </mxGeometry>
        </mxCell>
        <mxCell id="bcK_3l5cSYBwprj938RK-14" value="Filtered match list" style="curved=1;startArrow=none;endArrow=block;exitX=0.8;exitY=0;entryX=-0.01;entryY=0.57;rounded=0;" edge="1" parent="1" source="bcK_3l5cSYBwprj938RK-4" target="bcK_3l5cSYBwprj938RK-2">
          <mxGeometry relative="1" as="geometry">
            <Array as="points">
              <mxPoint x="278" y="163" />
              <mxPoint x="278" y="117" />
            </Array>
          </mxGeometry>
        </mxCell>
        <mxCell id="bcK_3l5cSYBwprj938RK-15" value="Select match / seats" style="curved=1;startArrow=none;endArrow=block;exitX=-0.01;exitY=0.61;entryX=0.31;entryY=0;rounded=0;" edge="1" parent="1" source="bcK_3l5cSYBwprj938RK-2" target="bcK_3l5cSYBwprj938RK-5">
          <mxGeometry relative="1" as="geometry">
            <Array as="points">
              <mxPoint x="445" y="117" />
              <mxPoint x="445" y="163" />
            </Array>
          </mxGeometry>
        </mxCell>
        <mxCell id="bcK_3l5cSYBwprj938RK-16" value="Check seat availability" style="curved=1;startArrow=none;endArrow=block;exitX=0.5;exitY=1.01;entryX=0.73;entryY=0;rounded=0;" edge="1" parent="1" source="bcK_3l5cSYBwprj938RK-5" target="bcK_3l5cSYBwprj938RK-10">
          <mxGeometry relative="1" as="geometry">
            <Array as="points">
              <mxPoint x="510" y="328" />
            </Array>
          </mxGeometry>
        </mxCell>
        <mxCell id="bcK_3l5cSYBwprj938RK-17" value="Available seats / Confirmation" style="curved=1;startArrow=none;endArrow=block;exitX=0.78;exitY=0;entryX=-0.01;entryY=0.68;rounded=0;" edge="1" parent="1" source="bcK_3l5cSYBwprj938RK-5" target="bcK_3l5cSYBwprj938RK-2">
          <mxGeometry relative="1" as="geometry">
            <Array as="points">
              <mxPoint x="604" y="163" />
              <mxPoint x="604" y="117" />
            </Array>
          </mxGeometry>
        </mxCell>
        <mxCell id="bcK_3l5cSYBwprj938RK-18" value="Submit payment details" style="curved=1;startArrow=none;endArrow=block;exitX=0.99;exitY=0.67;entryX=0.27;entryY=0;rounded=0;" edge="1" parent="1" source="bcK_3l5cSYBwprj938RK-2" target="bcK_3l5cSYBwprj938RK-6">
          <mxGeometry relative="1" as="geometry">
            <Array as="points">
              <mxPoint x="1101" y="117" />
              <mxPoint x="1101" y="163" />
            </Array>
          </mxGeometry>
        </mxCell>
        <mxCell id="bcK_3l5cSYBwprj938RK-19" value="Payment transaction" style="curved=1;startArrow=none;endArrow=block;exitX=0.12;exitY=1;entryX=0.34;entryY=0.01;rounded=0;" edge="1" parent="1" source="bcK_3l5cSYBwprj938RK-6" target="bcK_3l5cSYBwprj938RK-3">
          <mxGeometry relative="1" as="geometry">
            <Array as="points">
              <mxPoint x="1027" y="282" />
              <mxPoint x="1027" y="328" />
            </Array>
          </mxGeometry>
        </mxCell>
        <mxCell id="bcK_3l5cSYBwprj938RK-20" value="Payment confirmation" style="curved=1;startArrow=none;endArrow=block;exitX=0.68;exitY=0.01;entryX=0.5;entryY=1;rounded=0;" edge="1" parent="1" source="bcK_3l5cSYBwprj938RK-3" target="bcK_3l5cSYBwprj938RK-6">
          <mxGeometry relative="1" as="geometry">
            <Array as="points">
              <mxPoint x="1207" y="328" />
            </Array>
          </mxGeometry>
        </mxCell>
        <mxCell id="bcK_3l5cSYBwprj938RK-21" value="Record booking" style="curved=1;startArrow=none;endArrow=block;exitX=0.9;exitY=1;entryX=0.5;entryY=0;rounded=0;" edge="1" parent="1" source="bcK_3l5cSYBwprj938RK-6" target="bcK_3l5cSYBwprj938RK-11">
          <mxGeometry relative="1" as="geometry">
            <Array as="points">
              <mxPoint x="1397" y="282" />
            </Array>
          </mxGeometry>
        </mxCell>
        <mxCell id="bcK_3l5cSYBwprj938RK-22" value="Booking confirmation" style="curved=1;startArrow=none;endArrow=block;exitX=0.74;exitY=0;entryX=0.99;entryY=0.59;rounded=0;" edge="1" parent="1" source="bcK_3l5cSYBwprj938RK-6" target="bcK_3l5cSYBwprj938RK-2">
          <mxGeometry relative="1" as="geometry">
            <Array as="points">
              <mxPoint x="1318" y="163" />
              <mxPoint x="1318" y="117" />
            </Array>
          </mxGeometry>
        </mxCell>
        <mxCell id="bcK_3l5cSYBwprj938RK-23" value="Login / Update info" style="curved=1;startArrow=none;endArrow=block;exitX=0.99;exitY=0.57;entryX=0.26;entryY=0;rounded=0;" edge="1" parent="1" source="bcK_3l5cSYBwprj938RK-2" target="bcK_3l5cSYBwprj938RK-7">
          <mxGeometry relative="1" as="geometry">
            <Array as="points">
              <mxPoint x="1490" y="117" />
              <mxPoint x="1490" y="163" />
            </Array>
          </mxGeometry>
        </mxCell>
        <mxCell id="bcK_3l5cSYBwprj938RK-24" value="Authenticate / Update profile" style="curved=1;startArrow=none;endArrow=block;exitX=0.5;exitY=1;entryX=0.5;entryY=0;rounded=0;" edge="1" parent="1" source="bcK_3l5cSYBwprj938RK-7" target="bcK_3l5cSYBwprj938RK-9">
          <mxGeometry relative="1" as="geometry">
            <Array as="points" />
          </mxGeometry>
        </mxCell>
        <mxCell id="bcK_3l5cSYBwprj938RK-25" value="Profile confirmation / Booking history" style="curved=1;startArrow=none;endArrow=block;exitX=0.62;exitY=0;entryX=0.99;entryY=0.55;rounded=0;" edge="1" parent="1" source="bcK_3l5cSYBwprj938RK-7" target="bcK_3l5cSYBwprj938RK-2">
          <mxGeometry relative="1" as="geometry">
            <Array as="points">
              <mxPoint x="1664" y="163" />
              <mxPoint x="1664" y="117" />
            </Array>
          </mxGeometry>
        </mxCell>
        <mxCell id="bcK_3l5cSYBwprj938RK-26" value="View team highlights" style="curved=1;startArrow=none;endArrow=block;exitX=0.03;exitY=1;entryX=0.35;entryY=0;rounded=0;" edge="1" parent="1" source="bcK_3l5cSYBwprj938RK-2" target="bcK_3l5cSYBwprj938RK-8">
          <mxGeometry relative="1" as="geometry">
            <Array as="points">
              <mxPoint x="765" y="117" />
              <mxPoint x="765" y="163" />
            </Array>
          </mxGeometry>
        </mxCell>
        <mxCell id="bcK_3l5cSYBwprj938RK-27" value="Retrieve recent match highlights" style="curved=1;startArrow=none;endArrow=block;exitX=0.5;exitY=1;entryX=1;entryY=0.31;rounded=0;" edge="1" parent="1" source="bcK_3l5cSYBwprj938RK-8" target="bcK_3l5cSYBwprj938RK-10">
          <mxGeometry relative="1" as="geometry">
            <Array as="points">
              <mxPoint x="830" y="328" />
            </Array>
          </mxGeometry>
        </mxCell>
        <mxCell id="bcK_3l5cSYBwprj938RK-28" value="Display highlights" style="curved=1;startArrow=none;endArrow=block;exitX=0.73;exitY=0;entryX=0.96;entryY=1;rounded=0;" edge="1" parent="1" source="bcK_3l5cSYBwprj938RK-8" target="bcK_3l5cSYBwprj938RK-2">
          <mxGeometry relative="1" as="geometry">
            <Array as="points">
              <mxPoint x="928" y="163" />
              <mxPoint x="928" y="117" />
            </Array>
          </mxGeometry>
        </mxCell>
      </root>
    </mxGraphModel>
  </diagram>
</mxfile>
